<svg width="48" height="48" viewBox="0 0 48 48" fill="none" xmlns="http://www.w3.org/2000/svg">
<path d="M37.6112 10.2437C39.3624 10.7535 40.7168 12.1897 41.1586 14.0072C42.2834 17.3659 42.2776 30.7076 41.1586 33.9164C40.7168 35.734 39.3624 37.17 37.6112 37.68C34.4644 38.8572 13.5336 38.8202 10.3889 37.68C8.67254 37.1974 7.32788 35.8274 6.84138 34.0662C5.71856 30.7582 5.72052 17.3679 6.84138 14.0831C7.28312 12.2636 8.63558 10.8294 10.3889 10.3196C13.5336 9.17728 34.4644 9.17728 37.6112 10.2437Z" stroke="#FAFAFA" stroke-width="1.5" stroke-linecap="round" stroke-linejoin="round"/>
<path d="M29.0382 24.8584L21.694 29.0346C21.0674 29.3906 20.289 28.9392 20.289 28.2172V19.8651C20.289 19.1432 21.0674 18.6898 21.694 19.0459L29.0382 23.222C29.6726 23.5838 29.6726 24.4984 29.0382 24.8584Z" stroke="#FAFAFA" stroke-width="1.5" stroke-linecap="round" stroke-linejoin="round"/>
</svg>
